<svg width="256" height="256" version="1.1" xmlns="http://www.w3.org/2000/svg" desc="Created with imagetracer.js version 1.2.6" ><path fill="rgb(0,0,0)" stroke="rgb(0,0,0)" stroke-width="1" opacity="0" d="M 0 0 L 256 0 L 256 256 L 0 256 L 0 0 Z M 48 15 L 48 23 L 50 23 L 82 80 L 91 92 L 103 62 L 101 55 L 82 23 L 82 16 L 82 15 L 48 15 Z M 171 15 L 171 23 L 149 60 L 158 88 L 160 90 Q 159 92 162 91 L 200 26 L 204 24 L 204 16 L 204 15 L 171 15 Z M 111 42 L 111 48 L 108 57 L 50 216 Q 51 218 48 217 L 48 231 L 77 231 L 77 218 L 75 217 L 104 129 L 124 73 Q 123 69 126 70 L 156 159 L 160 166 L 165 185 L 176 215 L 175 218 L 175 231 L 205 231 L 205 218 L 204 217 L 199 208 L 187 172 L 141 47 Q 141 42 141 42 L 111 42 Z M 118 99 L 112 120 L 98 156 L 99 158 L 115 158 L 123 144 L 123 142 L 127 142 L 134 157 L 136 158 L 153 158 L 153 155 L 147 144 L 133 102 L 133 99 L 118 99 Z M 97 160 L 91 177 L 92 179 L 161 179 L 155 162 L 154 160 L 97 160 Z M 89 182 L 79 211 L 80 212 L 85 212 L 101 184 L 101 182 L 89 182 Z M 149 182 L 164 211 Q 166 213 171 212 L 162 185 L 162 182 L 149 182 Z " /><path fill="rgb(139,71,135)" stroke="rgb(139,71,135)" stroke-width="1" opacity="1" d="M 111 42 L 140.5 42 Q 141.5 42 141 46.5 L 187 171.5 L 199 207.5 L 203.5 217 L 205 217.5 L 205 231 L 175 231 L 175 217.5 L 176 214.5 L 165 184.5 L 160 165.5 L 156 158.5 L 126 70 Q 123 68.8 124 72.5 L 104 128.5 L 75 217 L 77 217.5 L 77 231 L 48 231 L 48 217 Q 50.7 218.1 50 215.5 L 108 56.5 L 111 47.5 L 111 42 Z " /><path fill="rgb(139,71,135)" stroke="rgb(139,71,135)" stroke-width="1" opacity="1" d="M 97 160 L 153.5 160 L 155 161.5 L 161 179 L 91.5 179 L 91 176.5 L 97 160 Z " /><path fill="rgb(9,84,107)" stroke="rgb(9,84,107)" stroke-width="1" opacity="1" d="M 48 15 L 81.5 15 L 82 15.5 L 82 22.5 L 101 54.5 L 103 61.5 L 90.5 92 L 82 79.5 L 50 23 L 48 22.5 L 48 15 Z " /><path fill="rgb(9,84,107)" stroke="rgb(9,84,107)" stroke-width="1" opacity="1" d="M 171 15 L 203.5 15 L 204 15.5 L 204 24 L 200 25.5 L 161.5 91 Q 159.3 91.8 160 89.5 L 158 87.5 L 149 59.5 L 171 22.5 L 171 15 Z " /><path fill="rgb(9,84,107)" stroke="rgb(9,84,107)" stroke-width="1" opacity="1" d="M 118 99 L 132.5 99 L 133 101.5 L 147 143.5 L 153 154.5 L 153 158 L 135.5 158 L 134 156.5 L 127 142 L 123 142 L 123 143.5 L 114.5 158 L 98.5 158 L 98 155.5 L 112 119.5 L 118 99 Z " /><path fill="rgb(9,84,107)" stroke="rgb(9,84,107)" stroke-width="1" opacity="1" d="M 89 182 L 100.5 182 L 101 183.5 L 85 212 L 79.5 212 L 79 210.5 L 89 182 Z " /><path fill="rgb(9,84,107)" stroke="rgb(9,84,107)" stroke-width="1" opacity="1" d="M 149 182 L 161.5 182 L 162 184.5 L 171 212 Q 165.6 213.5 164 210.5 L 149 182 Z " /></svg>